# xmcd
# 
# Track frame offsets:
#     150
#     11392
#     26005
#     41432
#     45470
#     79177
#     98805
#     119012
#     139875
#     153687
#     174447
#     199222
# 
# Disc length: 2893
# 
# Revision: 5
# Processed by: cddbd v1.5.2PL0 Copyright (c) Steve Scherf et al.
# Submitted via: fre:ac v1.0.27
# 
DISCID=9b0b4b0c
DTITLE=Andre Cristovao - Mandinga
DYEAR=1989
DGENRE=Blues
TTITLE0=Sebo Nas Canelas
TTITLE1=Confortável
TTITLE2=Duvido (Mas to tentando)
TTITLE3=Blind Dog
TTITLE4=Mandinga
TTITLE5=So Long Boemia
TTITLE6=Genuíno Pedaço de Cristo
TTITLE7=Dados Chumbados
TTITLE8=Palhaço de Gesso
TTITLE9=Carne de Pecoço
TTITLE10=Sem Whisky, Sem My Baby
TTITLE11=Pára Com Isso
EXTD=YEAR: 1989 ID3G:   0
EXTT0=
EXTT1=
EXTT2=
EXTT3=
EXTT4=
EXTT5=
EXTT6=
EXTT7=
EXTT8=
EXTT9=
EXTT10=
EXTT11=
PLAYORDER=
